<svg width="15" height="15" viewBox="0 0 15 15" fill="none" xmlns="http://www.w3.org/2000/svg">
<path d="M7.50924 5.56549C7.1104 5.5261 6.70912 5.61095 6.36037 5.80843C6.01161 6.0059 5.73241 6.30635 5.56101 6.66863C5.3896 7.03092 5.33436 7.43732 5.40286 7.83221C5.47135 8.2271 5.66022 8.59117 5.94362 8.87457C6.22702 9.15796 6.59109 9.34684 6.98598 9.41533C7.38086 9.48383 7.78727 9.42859 8.14955 9.25718C8.51184 9.08577 8.81228 8.80658 9.00976 8.45782C9.20724 8.10906 9.29209 7.70779 9.2527 7.30895C9.20779 6.86184 9.00968 6.444 8.69193 6.12626C8.37419 5.80851 7.95635 5.6104 7.50924 5.56549ZM12.1898 7.5C12.1886 7.7113 12.1731 7.92227 12.1434 8.13147L13.5166 9.20853C13.5764 9.25809 13.6167 9.32725 13.6303 9.40372C13.6439 9.48018 13.63 9.559 13.591 9.62617L12.2919 11.8738C12.2525 11.9404 12.1908 11.9908 12.1178 12.0163C12.0448 12.0418 11.9651 12.0407 11.8928 12.0132L10.529 11.4641C10.4538 11.4341 10.3723 11.4233 10.2919 11.4326C10.2115 11.4419 10.1346 11.471 10.0682 11.5172C9.8601 11.6606 9.64139 11.7879 9.41398 11.8981C9.34249 11.9329 9.28065 11.9847 9.23393 12.049C9.18721 12.1133 9.15704 12.1881 9.14609 12.2669L8.94167 13.7215C8.92824 13.7983 8.88856 13.8681 8.82939 13.9189C8.77022 13.9697 8.69525 13.9983 8.61728 14H6.0191C5.94242 13.9987 5.86848 13.9713 5.80946 13.9223C5.75043 13.8733 5.70986 13.8057 5.6944 13.7306L5.49029 12.2781C5.47883 12.1985 5.44788 12.123 5.40019 12.0582C5.3525 11.9935 5.28954 11.9415 5.21693 11.9069C4.9898 11.7973 4.77182 11.6696 4.5651 11.5251C4.49892 11.4791 4.42231 11.4502 4.3422 11.4412C4.26208 11.4321 4.18096 11.4431 4.10616 11.4732L2.74267 12.0221C2.67042 12.0496 2.59077 12.0507 2.51776 12.0253C2.44475 11.9998 2.38306 11.9494 2.34356 11.8829L1.04447 9.63528C1.00542 9.56813 0.99146 9.48929 1.00509 9.41281C1.01871 9.33633 1.05904 9.26717 1.11889 9.21764L2.27947 8.30642C2.34306 8.25595 2.39303 8.1904 2.42485 8.11572C2.45668 8.04103 2.46935 7.95958 2.46172 7.87876C2.45078 7.7521 2.4441 7.62575 2.4441 7.49909C2.4441 7.37243 2.45048 7.2479 2.46172 7.12397C2.46852 7.04364 2.45522 6.96288 2.42304 6.88897C2.39085 6.81505 2.34079 6.75031 2.27735 6.70056L1.11737 5.78935C1.05849 5.73956 1.01902 5.67064 1.00586 5.59467C0.992693 5.5187 1.00669 5.44052 1.04539 5.37383L2.34447 3.12617C2.38393 3.05965 2.44559 3.00919 2.51861 2.98368C2.59162 2.95818 2.6713 2.95926 2.74359 2.98675L4.10737 3.53591C4.18258 3.56586 4.26404 3.57667 4.34445 3.5674C4.42487 3.55812 4.50173 3.52904 4.56814 3.48276C4.77628 3.33943 4.99499 3.2121 5.22239 3.10187C5.29389 3.06712 5.35573 3.0153 5.40245 2.951C5.44917 2.88669 5.47934 2.81186 5.49029 2.73313L5.69471 1.27853C5.70813 1.20171 5.74782 1.13193 5.80699 1.08113C5.86616 1.03033 5.94113 1.00165 6.0191 1H8.61728C8.69396 1.00133 8.7679 1.02873 8.82692 1.07771C8.88594 1.12668 8.92652 1.1943 8.94197 1.26942L9.14609 2.72189C9.15755 2.80149 9.1885 2.87703 9.23619 2.94178C9.28388 3.00653 9.34683 3.0585 9.41945 3.09306C9.64658 3.2027 9.86456 3.33037 10.0713 3.47486C10.1375 3.52091 10.2141 3.54977 10.2942 3.55884C10.3743 3.5679 10.4554 3.55689 10.5302 3.5268L11.8937 2.97794C11.966 2.95043 12.0456 2.94929 12.1186 2.97474C12.1916 3.00019 12.2533 3.05059 12.2928 3.11706L13.5919 5.36472C13.631 5.43187 13.6449 5.51071 13.6313 5.58719C13.6177 5.66367 13.5773 5.73283 13.5175 5.78236L12.3569 6.69357C12.293 6.74388 12.2428 6.80937 12.2107 6.88406C12.1786 6.95875 12.1657 7.04028 12.1731 7.12124C12.1832 7.24699 12.1898 7.37334 12.1898 7.5Z" stroke="#F34970" stroke-linecap="round" stroke-linejoin="round"/>
</svg>
