<svg width="12" height="13" viewBox="0 0 12 13" fill="none" xmlns="http://www.w3.org/2000/svg">
<path d="M8.45 9.75C8.72083 9.75 8.95093 9.6551 9.1403 9.4653C9.3301 9.27593 9.425 9.04583 9.425 8.775C9.425 8.50417 9.3301 8.27407 9.1403 8.0847C8.95093 7.8949 8.72083 7.8 8.45 7.8C8.17917 7.8 7.94907 7.8949 7.7597 8.0847C7.5699 8.27407 7.475 8.50417 7.475 8.775C7.475 9.04583 7.5699 9.27593 7.7597 9.4653C7.94907 9.6551 8.17917 9.75 8.45 9.75ZM8.45 11.7C8.78583 11.7 9.09458 11.6213 9.37625 11.464C9.65792 11.3072 9.88542 11.0987 10.0588 10.8387C9.82042 10.6979 9.56583 10.5896 9.295 10.5137C9.02417 10.4379 8.7425 10.4 8.45 10.4C8.1575 10.4 7.87583 10.4379 7.605 10.5137C7.33417 10.5896 7.07958 10.6979 6.84125 10.8387C7.01458 11.0987 7.24208 11.3072 7.52375 11.464C7.80542 11.6213 8.11417 11.7 8.45 11.7ZM8.45 13C7.55083 13 6.78448 12.6832 6.15095 12.0497C5.51698 11.4157 5.2 10.6492 5.2 9.75C5.2 8.85083 5.51698 8.08427 6.15095 7.4503C6.78448 6.81677 7.55083 6.5 8.45 6.5C9.34917 6.5 10.1157 6.81677 10.7497 7.4503C11.3832 8.08427 11.7 8.85083 11.7 9.75C11.7 10.6492 11.3832 11.4157 10.7497 12.0497C10.1157 12.6832 9.34917 13 8.45 13ZM5.2 13C3.69417 12.6208 2.45115 11.7568 1.47095 10.4078C0.490317 9.05927 0 7.56167 0 5.915V1.95L5.2 0L10.4 1.95V5.63875C10.1183 5.49792 9.80157 5.38958 9.4497 5.31375C9.0974 5.23792 8.76417 5.2 8.45 5.2C7.19333 5.2 6.12083 5.64417 5.2325 6.5325C4.34417 7.42083 3.9 8.49333 3.9 9.75C3.9 10.4217 4.0274 11.0283 4.2822 11.57C4.53657 12.1117 4.85875 12.5829 5.24875 12.9837C5.23792 12.9837 5.2299 12.9866 5.2247 12.9922C5.21907 12.9974 5.21083 13 5.2 13Z" fill="#F34970"/>
</svg>
