<svg width="15" height="13" viewBox="0 0 15 13" fill="none" xmlns="http://www.w3.org/2000/svg">
<path d="M0 2C0 0.89543 0.895431 0 2 0H11C12.1046 0 13 0.895431 13 2V11C13 12.1046 12.1046 13 11 13H2C0.89543 13 0 12.1046 0 11V2Z" fill="#839FAC"/>
<path d="M1.89111 2.52051H11.4973" stroke="white" stroke-linecap="round"/>
<line x1="1.84082" y1="4.5" x2="10.9901" y2="4.5" stroke="white" stroke-linecap="round"/>
<line x1="1.84082" y1="6.5" x2="10.9901" y2="6.5" stroke="white" stroke-linecap="round"/>
<line x1="1.84082" y1="8.5" x2="10.9901" y2="8.5" stroke="white" stroke-linecap="round"/>
<line x1="1.84082" y1="10.5" x2="7.36537" y2="10.5" stroke="white" stroke-linecap="round"/>
<ellipse cx="8.09574" cy="5.41347" rx="3.72416" ry="3.68813" fill="white"/>
<path d="M13.9379 11.8765L13.9382 11.8768C14.1269 12.0644 14.4327 12.0644 14.6214 11.8768L14.6215 11.8768C14.8105 11.6887 14.8104 11.3835 14.6215 11.1953L11.4771 8.05086C12.0507 7.32222 12.3933 6.40473 12.3933 5.40741C12.3933 3.03547 10.4589 1.11416 8.07477 1.11416C5.6906 1.11416 3.75625 3.03547 3.75625 5.40741C3.75625 7.77934 5.6906 9.70065 8.07477 9.70065C9.10781 9.70065 10.0559 9.33904 10.7991 8.73718L13.9379 11.8765ZM8.07477 8.7432C6.21989 8.7432 4.71771 7.24882 4.71771 5.40741C4.71771 3.56599 6.21989 2.07161 8.07477 2.07161C9.92966 2.07161 11.4318 3.56599 11.4318 5.40741C11.4318 7.24882 9.92966 8.7432 8.07477 8.7432Z" fill="#011C25" stroke="#011C25" stroke-width="0.3"/>
<path d="M6.91748 5.83684L7.92126 7.22853L9.92881 4.24634" stroke="#011C25" stroke-width="0.8" stroke-linecap="round" stroke-linejoin="round"/>
</svg>
