<svg width="13" height="14" viewBox="0 0 13 14" fill="none" xmlns="http://www.w3.org/2000/svg">
<rect x="0.4" y="0.4" width="12.2" height="12.2" rx="1.6" fill="#011C25" stroke="#011C25" stroke-width="0.8"/>
<path d="M6.31763 3.12536C6.30977 3.09361 6.30715 3.06103 6.31457 3.02761C6.32331 2.99002 6.33816 2.91566 6.37267 2.97205C6.39583 3.01007 6.33729 3.10531 6.32113 3.12202C6.31982 3.12327 6.31851 3.12411 6.3172 3.12536M7.13541 3.04516C7.11662 3.11951 7.03449 3.12285 6.96809 3.09946C6.97028 3.09403 6.97203 3.08818 6.97246 3.0815C6.97377 3.02552 6.98688 2.96286 6.95499 2.91232C6.9314 2.87431 6.87636 2.84339 6.82961 2.85593C6.73831 2.88057 6.75229 3.01926 6.78855 3.07941C6.79904 3.09695 6.81301 3.11325 6.82874 3.12745C6.74487 3.2841 6.53824 3.39688 6.38665 3.24692C6.37661 3.23689 6.36874 3.22561 6.36044 3.21475C6.45305 3.13622 6.50635 3.02302 6.46135 2.91023C6.42553 2.82042 6.31938 2.7987 6.25473 2.88141C6.19575 2.9566 6.19575 3.09152 6.23026 3.18718C6.12848 3.23689 5.9983 3.23982 5.94762 3.12787C5.88734 2.99378 5.97427 2.85008 6.09309 2.77906C6.14683 2.7469 6.09746 2.66461 6.04329 2.69719C5.85283 2.81123 5.71566 3.13789 5.95549 3.28201C6.04985 3.33882 6.17391 3.32462 6.27744 3.27073C6.45436 3.50424 6.78811 3.40941 6.91393 3.18092C7.03668 3.23188 7.19482 3.21058 7.23064 3.07064C7.24593 3.01132 7.15026 2.98626 7.13497 3.04557" fill="#011C25"/>
<path d="M6.68402 9.05587C6.9167 8.91273 7.01464 8.57807 7.0063 8.4295C6.9945 8.21923 6.24019 8.28636 5.81512 8.40087C5.81512 8.40087 5.82415 8.853 6.15615 9.04353L5.15527 12.2233L5.60474 12.7757H6.40658H7.20842L7.39665 12.1887L6.68402 9.05587Z" fill="#6D47FF"/>
<path d="M5.26552 4.36682C5.73172 4.35838 6.10254 4.70375 6.10994 5.15338C6.1177 5.60493 5.75095 5.97943 5.2925 5.98748C4.84404 5.99553 4.48653 5.64211 4.47877 5.1829C4.471 4.72599 4.80929 4.37487 5.26515 4.36682M7.71818 4.32235C8.17441 4.3143 8.52416 4.65239 8.53155 5.10969C8.53931 5.56928 8.194 5.93535 7.74517 5.9434C7.28673 5.95184 6.90778 5.59113 6.90001 5.1392C6.89262 4.68957 7.25161 4.33078 7.71781 4.32235M4.41666 5.18405C4.42516 5.6793 4.81003 6.06031 5.29324 6.0515C5.7857 6.04268 6.17944 5.63905 6.17094 5.15223C6.1702 5.1116 6.1665 5.07135 6.16059 5.03226C6.17685 5.02651 6.19349 5.01769 6.19386 5.00696C6.19423 4.98779 6.1909 4.98089 6.16539 4.88008C6.24932 4.8314 6.37502 4.80112 6.51034 4.79882C6.63678 4.79652 6.75545 4.81875 6.84086 4.859C6.81683 4.96939 6.8135 4.97591 6.81461 4.99584C6.81498 5.00581 6.83014 5.01347 6.84529 5.01846C6.84049 5.05832 6.8379 5.09895 6.83864 5.13997C6.84677 5.62678 7.25383 6.01585 7.74628 6.00703C8.2295 5.99822 8.60143 5.6034 8.59292 5.10815C8.59181 5.03877 8.58294 4.97169 8.56778 4.90806L8.74155 4.89465L8.74007 4.8038C8.74007 4.8038 8.64616 4.79882 8.53525 4.80035C8.41102 4.4707 8.09862 4.25144 7.71671 4.25872C7.4775 4.26294 7.25531 4.35532 7.09041 4.51899C7.01019 4.59872 6.9477 4.69149 6.90519 4.79268C6.80574 4.73748 6.66118 4.70644 6.50849 4.7095C6.34433 4.71257 6.19497 4.75243 6.09737 4.81836C6.05115 4.71487 5.98387 4.62057 5.89809 4.54084C5.72802 4.3833 5.5025 4.29897 5.2633 4.30319C4.88175 4.31009 4.57674 4.54046 4.46361 4.87433C4.3527 4.87701 4.25879 4.88506 4.25879 4.88506L4.26027 4.97591L4.4344 4.98319C4.42146 5.04759 4.41481 5.11467 4.41629 5.18405" fill="#011C25"/>
<path d="M5.26552 4.36682C5.73172 4.35838 6.10254 4.70375 6.10994 5.15338C6.1177 5.60493 5.75095 5.97943 5.2925 5.98748C4.84404 5.99553 4.48653 5.64211 4.47877 5.1829C4.471 4.72599 4.80929 4.37487 5.26515 4.36682M7.71818 4.32235C8.17441 4.3143 8.52416 4.65239 8.53155 5.10969C8.53931 5.56928 8.194 5.93535 7.74517 5.9434C7.28673 5.95184 6.90778 5.59113 6.90001 5.1392C6.89262 4.68957 7.25161 4.33078 7.71781 4.32235M4.41666 5.18405C4.42516 5.6793 4.81003 6.06031 5.29324 6.0515C5.7857 6.04268 6.17944 5.63905 6.17094 5.15223C6.1702 5.1116 6.1665 5.07135 6.16059 5.03226C6.17685 5.02651 6.19349 5.01769 6.19386 5.00696C6.19423 4.98779 6.1909 4.98089 6.16539 4.88008C6.24932 4.8314 6.37502 4.80112 6.51034 4.79882C6.63678 4.79652 6.75545 4.81875 6.84086 4.859C6.81683 4.96939 6.8135 4.97591 6.81461 4.99584C6.81498 5.00581 6.83014 5.01347 6.84529 5.01846C6.84049 5.05832 6.8379 5.09895 6.83864 5.13997C6.84677 5.62678 7.25383 6.01585 7.74628 6.00703C8.2295 5.99822 8.60143 5.6034 8.59292 5.10815C8.59181 5.03877 8.58294 4.97169 8.56778 4.90806L8.74155 4.89465L8.74007 4.8038C8.74007 4.8038 8.64616 4.79882 8.53525 4.80035C8.41102 4.4707 8.09862 4.25144 7.71671 4.25872C7.4775 4.26294 7.2553 4.35532 7.09041 4.51899C7.01019 4.59872 6.9477 4.69149 6.90519 4.79268C6.80574 4.73748 6.66118 4.70644 6.50849 4.7095C6.34433 4.71257 6.19497 4.75243 6.09737 4.81836C6.05115 4.71487 5.98387 4.62057 5.89809 4.54084C5.72802 4.3833 5.5025 4.29897 5.2633 4.30319C4.88175 4.31009 4.57674 4.54046 4.46361 4.87433C4.3527 4.87701 4.25879 4.88506 4.25879 4.88506L4.26027 4.97591L4.4344 4.98319C4.42146 5.04759 4.41481 5.11467 4.41629 5.18405" stroke="#011C25" stroke-width="0.5"/>
<path d="M5.6033 4.37086C6.05157 4.595 6.16364 4.78388 6.16364 5.15535C6.16364 5.52681 6.05157 5.71569 5.71537 5.93983C5.37916 5.71569 5.26709 5.36553 5.26709 5.15535C5.26709 4.94517 5.37916 4.595 5.6033 4.37086Z" fill="#011C25"/>
<path d="M8.00867 4.32766C8.45695 4.55179 8.56901 4.74068 8.56901 5.11214C8.56901 5.4836 8.45695 5.67248 8.12074 5.89662C7.78453 5.67248 7.67246 5.32232 7.67246 5.11214C7.67246 4.90196 7.78453 4.55179 8.00867 4.32766Z" fill="#011C25"/>
<path d="M9.18971 7.39659C9.18967 7.06038 9.18406 7.08674 9.22727 6.93456C9.27156 6.78194 9.35691 6.64052 9.46602 6.52435C9.57534 6.40775 9.70671 6.31508 9.84542 6.24305C9.98435 6.17058 10.1311 6.11788 10.2795 6.07791L10.2829 6.07703L10.2862 6.07638C10.3389 6.06693 10.3854 6.06254 10.4348 6.05837C10.4834 6.05464 10.5323 6.05244 10.5809 6.05178C10.6783 6.05134 10.776 6.05705 10.8732 6.07089C11.0668 6.09921 11.2615 6.15894 11.43 6.27094C11.5141 6.32628 11.5905 6.39479 11.6536 6.4734C11.7165 6.55246 11.7666 6.64074 11.8027 6.73319C11.8729 6.91962 11.8904 7.11748 11.8727 7.30743C11.849 7.11836 11.806 6.93236 11.7191 6.77249C11.6353 6.61131 11.5061 6.48351 11.354 6.39896C11.2012 6.3142 11.0279 6.26852 10.8512 6.24964C10.7628 6.23997 10.6732 6.23668 10.5837 6.2391C10.539 6.23997 10.4943 6.24239 10.4497 6.24634C10.4059 6.25008 10.3594 6.25601 10.3199 6.26237L10.3266 6.26084C10.1872 6.29751 10.0511 6.34362 9.92212 6.40335C9.79357 6.4633 9.67192 6.53709 9.56649 6.63064C9.46083 6.72352 9.37246 6.83684 9.31132 6.96728C9.24996 7.0975 9.18841 7.24463 9.18971 7.39659Z" fill="#5137E7"/>
<path d="M9.63888 6.40965C9.63888 6.40965 9.81569 7.09303 9.44991 7.05374C9.25019 7.03222 8.82267 6.74549 9.01304 6.33856C9.06964 6.21741 9.23756 6.20712 9.63374 6.29085L9.63888 6.40965Z" fill="#6D47FF"/>
<path d="M9.88986 6.29981C9.88986 6.29981 10.5555 6.58653 10.5559 6.21889C10.5564 6.01822 10.3291 5.33017 9.92541 5.72214C9.92541 5.72214 9.78977 5.81943 9.77246 6.23573L9.88986 6.29981Z" fill="#6D47FF"/>
<path d="M9.8797 6.16838C9.93583 6.26989 9.89981 6.39758 9.79831 6.45371C9.69728 6.51031 9.56912 6.47382 9.51299 6.37279C9.45639 6.27129 9.49287 6.14359 9.59437 6.08746C9.69541 6.03087 9.82357 6.06735 9.8797 6.16838Z" fill="#5137E7"/>
<path d="M9.76274 6.10974C9.78379 6.14763 9.75198 6.20563 9.69117 6.2393C9.63084 6.27298 9.56442 6.26971 9.54337 6.23182C9.52279 6.19393 9.55459 6.13593 9.61493 6.10226C9.67574 6.06811 9.74169 6.07138 9.76274 6.10927" fill="#6D47FF"/>
<rect x="0.4" y="0.4" width="12.2" height="12.2" rx="1.6" fill="#011C25" stroke="#011C25" stroke-width="0.8"/>
<circle cx="10.5343" cy="7.3966" r="1.56897" fill="#FEF4EB"/>
<circle cx="6.61225" cy="5.04316" r="2.57759" fill="#FEF4EB"/>
<path d="M12.7541 11.3514C12.6877 11.9686 12.1951 12.2621 11.6584 12.4011C11.1767 12.5258 10.6929 12.5159 10.5384 12.5127C10.5215 12.5124 10.5085 12.5121 10.4999 12.5121C10.3075 12.5121 10.1187 12.5194 9.9414 12.5261C9.84676 12.5298 9.75541 12.5333 9.66855 12.5355C9.41434 12.5419 9.19536 12.5375 9.01533 12.4987C8.83744 12.4604 8.70667 12.3905 8.61799 12.272C8.52806 12.1519 8.47061 11.9675 8.47061 11.6785C8.47061 10.5284 9.3813 9.6 10.4999 9.6C11.0767 9.6 11.6806 9.72308 12.1186 10.0044C12.55 10.2815 12.8229 10.712 12.7541 11.3514Z" fill="#FEF4EB" stroke="#011C25" stroke-width="0.2"/>
<path d="M4.38278 11.8164C4.38278 12.1055 4.32531 12.2898 4.23536 12.41C4.14666 12.5284 4.01586 12.5983 3.83795 12.6367C3.6579 12.6755 3.4389 12.6799 3.18471 12.6734C3.09785 12.6712 3.00649 12.6677 2.91185 12.6641C2.73458 12.6573 2.54579 12.6501 2.35347 12.6501C2.3414 12.6501 2.3226 12.6508 2.29796 12.6517C2.14964 12.6571 1.78999 12.6702 1.41657 12.5876C0.980241 12.4911 0.562761 12.2723 0.437682 11.7913C0.276332 11.1708 0.472281 10.6628 0.846909 10.3059C1.22506 9.94569 1.78806 9.73794 2.35347 9.73794C3.4718 9.73794 4.38278 10.6664 4.38278 11.8164Z" fill="#FEF4EB" stroke="#011C25" stroke-width="0.2"/>
<path d="M10.3534 12.1588C10.3319 12.3993 10.3026 12.513 10.2494 12.5831C10.2039 12.6431 10.1131 12.7044 9.86218 12.7454C9.61183 12.7864 9.24482 12.8009 8.69499 12.8043C8.3958 12.8061 8.0485 12.8047 7.6424 12.803C7.30439 12.8016 6.92564 12.8 6.5 12.8C5.94534 12.8 5.46907 12.8077 5.0631 12.8142C4.91887 12.8165 4.78352 12.8187 4.65668 12.8203C4.16847 12.8267 3.81293 12.8248 3.55045 12.7954C3.28474 12.7657 3.1524 12.7111 3.07873 12.6436C3.01059 12.5811 2.96093 12.4779 2.94133 12.2621C2.85154 11.2733 3.24048 10.2555 3.91136 9.48233C4.58218 8.70919 5.51762 8.2 6.5 8.2C7.48873 8.2 8.50013 8.6891 9.24395 9.44021C9.98782 10.1914 10.441 11.1804 10.3534 12.1588Z" fill="#FEF4EB" stroke="#011C25" stroke-width="0.4"/>
<path d="M4.03442 7.50866C4.03442 8.37518 3.33197 9.07763 2.46545 9.07763C1.59893 9.07763 0.896484 8.37518 0.896484 7.50866C0.896484 6.64215 1.59893 5.9397 2.46545 5.9397C3.33197 5.9397 4.03442 6.64215 4.03442 7.50866Z" fill="#FEF4EB"/>
<path d="M6.31763 3.12536C6.30977 3.09361 6.30715 3.06103 6.31457 3.02761C6.32331 2.99002 6.33816 2.91566 6.37267 2.97205C6.39583 3.01007 6.33729 3.10531 6.32113 3.12202C6.31982 3.12327 6.31851 3.12411 6.3172 3.12536M7.13541 3.04516C7.11662 3.11951 7.03449 3.12285 6.96809 3.09946C6.97028 3.09403 6.97203 3.08818 6.97246 3.0815C6.97377 3.02552 6.98688 2.96286 6.95499 2.91232C6.9314 2.87431 6.87636 2.84339 6.82961 2.85593C6.73831 2.88057 6.75229 3.01926 6.78855 3.07941C6.79904 3.09695 6.81301 3.11325 6.82874 3.12745C6.74487 3.2841 6.53824 3.39688 6.38665 3.24692C6.37661 3.23689 6.36874 3.22561 6.36044 3.21475C6.45305 3.13622 6.50635 3.02302 6.46135 2.91023C6.42553 2.82042 6.31938 2.7987 6.25473 2.88141C6.19575 2.9566 6.19575 3.09152 6.23026 3.18718C6.12848 3.23689 5.9983 3.23982 5.94762 3.12787C5.88734 2.99378 5.97427 2.85008 6.09309 2.77906C6.14683 2.7469 6.09746 2.66461 6.04329 2.69719C5.85283 2.81123 5.71566 3.13789 5.95549 3.28201C6.04985 3.33882 6.17391 3.32462 6.27744 3.27073C6.45436 3.50424 6.78811 3.40941 6.91393 3.18092C7.03668 3.23188 7.19482 3.21058 7.23064 3.07064C7.24593 3.01132 7.15026 2.98626 7.13497 3.04557" fill="#011C25"/>
<path d="M5.26551 4.36682C5.73172 4.35838 6.10254 4.70375 6.10994 5.15338C6.1177 5.60493 5.75095 5.97943 5.2925 5.98748C4.84404 5.99553 4.48653 5.64211 4.47877 5.1829C4.471 4.72599 4.80966 4.37487 5.26551 4.36682ZM7.71818 4.32235C8.17441 4.3143 8.52416 4.65239 8.53155 5.10969C8.53931 5.56928 8.194 5.93535 7.74517 5.9434C7.28673 5.95184 6.90778 5.59113 6.90001 5.1392C6.89262 4.68957 7.25198 4.33078 7.71818 4.32235ZM4.41666 5.18405C4.42516 5.6793 4.81003 6.06031 5.29324 6.0515C5.7857 6.04268 6.17944 5.63905 6.17094 5.15223C6.1702 5.1116 6.1665 5.07135 6.16059 5.03226C6.17685 5.02651 6.19349 5.01769 6.19386 5.00696C6.19423 4.98779 6.1909 4.98089 6.16539 4.88008C6.24932 4.8314 6.37502 4.80112 6.51034 4.79882C6.63678 4.79652 6.75545 4.81875 6.84086 4.859C6.81683 4.96939 6.8135 4.97591 6.81461 4.99584C6.81498 5.00581 6.83014 5.01347 6.84529 5.01846C6.84049 5.05832 6.8379 5.09895 6.83864 5.13997C6.84677 5.62678 7.25383 6.01585 7.74628 6.00703C8.2295 5.99822 8.60143 5.6034 8.59292 5.10815C8.59181 5.03877 8.58294 4.97169 8.56778 4.90806L8.74155 4.89465L8.74007 4.8038C8.74007 4.8038 8.64616 4.79882 8.53525 4.80035C8.41102 4.4707 8.09862 4.25144 7.71671 4.25872C7.4775 4.26294 7.2553 4.35532 7.09041 4.51899C7.01019 4.59872 6.9477 4.69149 6.90519 4.79268C6.80574 4.73748 6.66118 4.70644 6.50849 4.7095C6.34433 4.71257 6.19497 4.75243 6.09737 4.81836C6.05115 4.71487 5.98387 4.62057 5.89809 4.54084C5.72802 4.3833 5.5025 4.29897 5.2633 4.30319C4.88175 4.31009 4.57674 4.54046 4.46361 4.87433C4.3527 4.87701 4.25879 4.88506 4.25879 4.88506L4.26027 4.97591L4.4344 4.98319C4.42146 5.04759 4.41518 5.11467 4.41666 5.18405Z" fill="#011C25" stroke="#011C25" stroke-width="0.2"/>
<path d="M5.6033 4.37086C6.05157 4.595 6.16364 4.78388 6.16364 5.15535C6.16364 5.52681 6.05157 5.71569 5.71537 5.93983C5.37916 5.71569 5.26709 5.36553 5.26709 5.15535C5.26709 4.94517 5.37916 4.595 5.6033 4.37086Z" fill="#011C25"/>
<path d="M8.00867 4.32766C8.45695 4.55179 8.56901 4.74068 8.56901 5.11214C8.56901 5.4836 8.45695 5.67248 8.12074 5.89662C7.78453 5.67248 7.67246 5.32232 7.67246 5.11214C7.67246 4.90196 7.78453 4.55179 8.00867 4.32766Z" fill="#011C25"/>
</svg>
