<svg width="13" height="13" viewBox="0 0 13 13" fill="none" xmlns="http://www.w3.org/2000/svg">
<path d="M2 13C0.89543 13 0 12.1046 0 11V5.4037C0 4.735 0.334202 4.11053 0.8906 3.7396L5.3906 0.7396C6.0624 0.291735 6.9376 0.291734 7.6094 0.7396L12.1094 3.7396C12.6658 4.11053 13 4.73499 13 5.4037V11C13 12.1046 12.1046 13 11 13H8.125H7.15H6.5H5.30833H4.875H2Z" fill="#F34970"/>
<circle cx="6.50003" cy="5.84989" r="2.38333" fill="#FEF4EB"/>
<path d="M9.75703 12.2156C9.73793 12.434 9.71204 12.5326 9.66826 12.5917C9.63285 12.6394 9.55994 12.6931 9.3409 12.7298C9.12181 12.7665 8.79913 12.7797 8.31242 12.7827C8.04774 12.7844 7.74071 12.7831 7.38157 12.7815C7.08251 12.7803 6.74731 12.7788 6.37037 12.7788C5.87934 12.7788 5.45757 12.7858 5.0983 12.7917C4.97074 12.7938 4.85107 12.7958 4.73897 12.7973C4.30671 12.803 3.99383 12.8012 3.76357 12.7749C3.53039 12.7482 3.42 12.6996 3.36036 12.6437C3.30528 12.592 3.26174 12.5037 3.24448 12.3092C3.16542 11.4178 3.50803 10.5001 4.09873 9.80321C4.68958 9.10613 5.51099 8.64995 6.37037 8.64995C7.23627 8.64995 8.12511 9.08876 8.78033 9.76605C9.43531 10.4431 9.83409 11.3345 9.75703 12.2156Z" fill="#FEF4EB" stroke="#F34970" stroke-width="0.4"/>
<path d="M6.16237 4.07879C6.15388 4.04998 6.15105 4.0204 6.15907 3.99007C6.1685 3.95594 6.18454 3.88845 6.2218 3.93964C6.2468 3.97414 6.1836 4.06059 6.16615 4.07576C6.16473 4.0769 6.16332 4.07765 6.1619 4.07879M7.04536 4.00599C7.02508 4.07348 6.9364 4.07652 6.86471 4.05528C6.86706 4.05035 6.86895 4.04505 6.86942 4.03898C6.87084 3.98817 6.88499 3.9313 6.85056 3.88542C6.82508 3.85092 6.76565 3.82286 6.71518 3.83423C6.6166 3.8566 6.6317 3.98248 6.67084 4.03708C6.68217 4.05301 6.69726 4.0678 6.71424 4.08069C6.62368 4.22287 6.40057 4.32525 6.2369 4.18913C6.22605 4.18003 6.21756 4.16979 6.2086 4.15993C6.30859 4.08865 6.36614 3.9859 6.31755 3.88352C6.27888 3.802 6.16426 3.78229 6.09445 3.85736C6.03077 3.92561 6.03077 4.04808 6.06804 4.13491C5.95813 4.18003 5.81757 4.18268 5.76286 4.08107C5.69776 3.95936 5.79163 3.82892 5.91993 3.76447C5.97794 3.73527 5.92464 3.66058 5.86616 3.69015C5.6605 3.79366 5.51239 4.09017 5.77135 4.22098C5.87323 4.27254 6.00719 4.25965 6.11898 4.21074C6.31001 4.42269 6.67037 4.33662 6.80622 4.12922C6.93876 4.17548 7.10951 4.15614 7.14819 4.02912C7.1647 3.97528 7.0614 3.95253 7.04489 4.00637" fill="#F34970"/>
<path d="M5.25801 5.29153C5.68614 5.2844 6.02668 5.57652 6.03347 5.95684C6.0406 6.33877 5.70379 6.65554 5.28279 6.66235C4.87095 6.66915 4.54264 6.37022 4.53551 5.9818C4.52838 5.59533 4.83938 5.29834 5.25801 5.29153ZM7.51037 5.25392C7.92934 5.24711 8.25053 5.53308 8.25732 5.91988C8.26445 6.30862 7.94734 6.61825 7.53516 6.62506C7.11416 6.63219 6.76615 6.3271 6.75902 5.94484C6.75223 5.56453 7.08224 5.26105 7.51037 5.25392ZM4.47847 5.98277C4.48628 6.40167 4.83972 6.72395 5.28347 6.71649C5.73571 6.70903 6.0973 6.36763 6.08949 5.95586C6.08881 5.9215 6.08541 5.88745 6.07998 5.85438C6.09492 5.84952 6.1102 5.84206 6.11054 5.83298C6.11088 5.81677 6.10782 5.81094 6.0844 5.72567C6.16147 5.68449 6.2769 5.65888 6.40117 5.65693C6.51728 5.65498 6.62627 5.67379 6.7047 5.70783C6.68263 5.80121 6.67957 5.80672 6.68059 5.82358C6.68093 5.83201 6.69485 5.8385 6.70877 5.84271C6.70436 5.87643 6.70198 5.9108 6.70266 5.94549C6.71013 6.35725 7.08394 6.68634 7.53618 6.67888C7.97993 6.67142 8.32149 6.33747 8.31368 5.91858C8.31266 5.85989 8.30451 5.80315 8.29059 5.74933L8.45016 5.73799L8.4488 5.66115C8.4488 5.66115 8.36257 5.65693 8.26071 5.65823C8.14663 5.3794 7.85974 5.19394 7.50902 5.2001C7.28935 5.20367 7.0853 5.2818 6.93387 5.42025C6.8602 5.48769 6.80282 5.56615 6.76377 5.65174C6.67244 5.60505 6.53969 5.57879 6.39947 5.58139C6.24872 5.58398 6.11156 5.6177 6.02192 5.67347C5.97948 5.58593 5.91769 5.50617 5.83892 5.43873C5.68274 5.30547 5.47564 5.23414 5.25597 5.23771C4.90559 5.24355 4.62548 5.4384 4.52159 5.7208C4.41973 5.72307 4.3335 5.72988 4.3335 5.72988L4.33485 5.80672L4.49477 5.81288C4.48288 5.86735 4.47711 5.92409 4.47847 5.98277Z" fill="#F34970" stroke="#F34970" stroke-width="0.2"/>
<path d="M5.50905 5.24062C5.92087 5.45147 6.02382 5.62916 6.02382 5.97862C6.02382 6.32807 5.92087 6.50576 5.61201 6.71662C5.30315 6.50576 5.2002 6.17634 5.2002 5.97862C5.2002 5.78089 5.30315 5.45147 5.50905 5.24062Z" fill="#F34970"/>
<path d="M7.71876 5.19997C8.13058 5.41083 8.23353 5.58852 8.23353 5.93797C8.23353 6.28742 8.13058 6.46511 7.82172 6.67597C7.51286 6.46511 7.40991 6.1357 7.40991 5.93797C7.40991 5.74024 7.51286 5.41083 7.71876 5.19997Z" fill="#F34970"/>
</svg>
