<svg width="101" height="47" viewBox="0 0 101 47" fill="none" xmlns="http://www.w3.org/2000/svg">
<path d="M89.0225 21.175L92.7344 16.8418C92.929 16.6159 93.1088 16.5005 93.2714 16.5005C93.498 16.5005 93.6778 16.6135 93.8083 16.8418L97.5203 21.175C97.8454 21.4991 98.2198 21.6611 98.6435 21.6611C99.0671 21.6611 99.4563 21.4917 99.8159 21.1505C100.173 20.8092 100.353 20.4287 100.353 20.0064C100.353 19.616 100.205 19.2772 99.9144 18.9851L95.7641 14.6052C95.6335 14.4432 95.5695 14.264 95.5695 14.07C95.5695 13.8441 95.6335 13.6649 95.7641 13.5348L99.6213 9.49375C99.8479 9.23351 99.9637 8.92663 99.9637 8.56819C99.9637 8.114 99.7839 7.70891 99.4267 7.35047C99.0671 6.99448 98.6607 6.81526 98.205 6.81526C98.0104 6.81526 97.806 6.857 97.5942 6.93801C97.3823 7.01903 97.1951 7.1737 97.0326 7.39957L93.8083 11.2442C93.6458 11.4725 93.466 11.5855 93.2714 11.5855C93.1408 11.5855 92.961 11.4725 92.7344 11.2442L89.5102 7.39957C89.3476 7.1737 89.1604 7.01903 88.9486 6.93801C88.7368 6.857 88.5323 6.81526 88.3377 6.81526C87.9141 6.81526 87.5077 6.98466 87.116 7.32592C86.7244 7.66717 86.5298 8.06489 86.5298 8.51908C86.5298 8.87752 86.6431 9.18441 86.8722 9.44465L90.828 13.5324C90.9905 13.6944 91.0718 13.8736 91.0718 14.0676C91.0718 14.1977 90.9905 14.3769 90.828 14.6028L86.6283 18.9826C86.3352 19.2748 86.1899 19.616 86.1899 20.0039C86.1899 20.4262 86.3697 20.8067 86.7268 21.148C87.084 21.4893 87.4756 21.6587 87.8993 21.6587C88.3229 21.6587 88.6973 21.4966 89.0225 21.1726M82.9435 21.2708C83.2858 21.0105 83.4558 20.6373 83.4558 20.1512V8.47244C83.4558 7.92005 83.2858 7.50759 82.9435 7.23017C82.6011 6.9552 82.2193 6.81772 81.7956 6.81772C81.372 6.81772 80.9902 6.9552 80.6478 7.23017C80.3055 7.50514 80.1355 7.92005 80.1355 8.47244V20.1537C80.1355 20.6398 80.3055 21.013 80.6478 21.2732C80.9902 21.5334 81.372 21.6636 81.7956 21.6636C82.2193 21.6636 82.6011 21.5334 82.9435 21.2732M66.6572 17.404C65.9405 16.5766 65.5833 15.4817 65.5833 14.1191C65.5833 12.7565 65.9405 11.7819 66.6572 11.0036C67.374 10.2254 68.3494 9.835 69.5884 9.835C70.8273 9.835 71.884 10.2254 72.6648 11.0036C73.4456 11.7819 73.8373 12.8204 73.8373 14.1191C73.8373 15.4817 73.4456 16.5766 72.6648 17.404C71.884 18.2314 70.8594 18.6463 69.5884 18.6463C68.3174 18.6463 67.374 18.2314 66.6572 17.404ZM73.6649 20.6889C74.756 20.0408 75.6107 19.1397 76.229 17.9883C76.8472 16.8369 77.1576 15.548 77.1576 14.1191C77.1576 12.6903 76.8472 11.475 76.229 10.3702C75.6107 9.26788 74.756 8.39879 73.6649 7.76538C72.5737 7.13197 71.3126 6.81526 69.8815 6.81526C68.9701 6.81526 68.1548 6.96993 67.4405 7.27681C66.7238 7.58615 66.1055 7.98142 65.5858 8.46998C65.5193 8.01579 65.3247 7.66717 64.9996 7.42412C64.6744 7.18107 64.3148 7.05831 63.9256 7.05831C63.502 7.05831 63.1202 7.1958 62.7778 7.47322C62.4354 7.74819 62.2655 8.1631 62.2655 8.71549V26.7235C62.2655 27.2096 62.4354 27.5828 62.7778 27.843C63.1202 28.1032 63.502 28.2334 63.9256 28.2334C64.3493 28.2334 64.7311 28.1032 65.0735 27.843C65.4158 27.5828 65.5858 27.2096 65.5858 26.7235V19.9573C66.1055 20.4778 66.7238 20.8902 67.4405 21.1996C68.1548 21.5064 68.9701 21.6611 69.8815 21.6611C71.3126 21.6611 72.5737 21.337 73.6649 20.6864M48.834 17.4016C48.1173 16.5742 47.7601 15.4792 47.7601 14.1167C47.7601 12.7541 48.1173 11.7794 48.834 11.0012C49.5508 10.2229 50.5262 9.83255 51.7627 9.83255C52.9992 9.83255 54.0583 10.2229 54.8391 11.0012C55.62 11.7794 56.0116 12.8179 56.0116 14.1167C56.0116 15.4792 55.62 16.5742 54.8391 17.4016C54.0583 18.2289 53.0312 18.6438 51.7627 18.6438C50.4942 18.6438 49.5483 18.2289 48.834 17.4016ZM55.8416 20.6864C56.9328 20.0383 57.7875 19.1373 58.4058 17.9859C59.024 16.8344 59.3344 15.5455 59.3344 14.1167C59.3344 12.6878 59.024 11.4725 58.4058 10.3678C57.7875 9.26543 56.9328 8.39633 55.8416 7.76292C54.7505 7.12951 53.4893 6.81281 52.0558 6.81281C51.1445 6.81281 50.3292 6.96748 49.6148 7.27436C48.8981 7.5837 48.2798 7.97897 47.7601 8.46753C47.6936 8.01334 47.499 7.66472 47.1739 7.42166C46.8488 7.17861 46.4891 7.05586 46.1 7.05586C45.6763 7.05586 45.2945 7.19334 44.9521 7.47077C44.6098 7.74573 44.4398 8.16064 44.4398 8.71303V26.7235C44.4398 27.2096 44.6098 27.5828 44.9521 27.843C45.2945 28.1032 45.6763 28.2334 46.1 28.2334C46.5236 28.2334 46.9054 28.1032 47.2478 27.843C47.5902 27.5828 47.7601 27.2096 47.7601 26.7235V19.9573C48.2798 20.4778 48.8981 20.8902 49.6148 21.1996C50.3316 21.5064 51.1445 21.6611 52.0558 21.6611C53.4893 21.6611 54.748 21.337 55.8416 20.6864ZM30.3753 17.4016C29.5945 16.5742 29.2029 15.4792 29.2029 14.1167C29.2029 12.7541 29.5945 11.7794 30.3753 11.0012C31.1561 10.2229 32.1808 9.83255 33.4518 9.83255C34.7228 9.83255 35.6661 10.2229 36.3829 11.0012C37.0972 11.7794 37.4568 12.8179 37.4568 14.1167C37.4568 15.4792 37.0972 16.5742 36.3829 17.4016C35.6661 18.2289 34.6907 18.6438 33.4518 18.6438C32.2128 18.6438 31.1561 18.2289 30.3753 17.4016ZM35.5996 21.1971C36.3139 20.8902 36.9346 20.4753 37.4544 19.9548V20.1488C37.4544 20.6349 37.6243 21.0081 37.9667 21.2683C38.3091 21.5285 38.6909 21.6587 39.1145 21.6587C39.5382 21.6587 39.92 21.5285 40.2623 21.2683C40.6047 21.0081 40.7747 20.6349 40.7747 20.1488V8.71549C40.7747 8.1631 40.6047 7.75064 40.2623 7.47322C39.92 7.19825 39.5382 7.05831 39.1145 7.05831C38.7229 7.05831 38.3657 7.18107 38.0406 7.42412C37.7155 7.66717 37.5184 8.01579 37.4544 8.46998C36.9322 7.98388 36.3139 7.58615 35.5996 7.27681C34.8829 6.96993 34.07 6.81526 33.1587 6.81526C31.7596 6.81526 30.5059 7.13197 29.3975 7.76538C28.2915 8.39879 27.427 9.26543 26.8087 10.3702C26.1905 11.4725 25.8801 12.7246 25.8801 14.1191C25.8801 15.5136 26.188 16.8369 26.8087 17.9883C27.427 19.1397 28.2891 20.0408 29.3975 20.6889C30.5034 21.337 31.7571 21.6636 33.1587 21.6636C34.07 21.6636 34.8829 21.5089 35.5996 21.202M2.80797 21.2757C3.15034 21.0154 3.3203 20.6423 3.3203 20.1561V13.9743C3.3203 12.9358 3.55676 11.9881 4.02722 11.1264C4.49768 10.2671 5.43613 9.83746 6.83519 9.83746C7.77857 9.83746 8.52736 10.1787 9.08156 10.8588C9.63577 11.5388 9.91164 12.5945 9.91164 14.0234V20.1561C9.91164 20.6423 10.0816 21.0154 10.424 21.2757C10.7663 21.5359 11.1481 21.666 11.5718 21.666C11.9634 21.666 12.3354 21.5359 12.695 21.2757C13.0521 21.0154 13.2319 20.6423 13.2319 20.1561V12.953C13.3625 12.1084 13.6876 11.3792 14.2098 10.763C14.7295 10.1468 15.5768 9.83746 16.7493 9.83746C18.8331 9.83746 19.875 11.2319 19.875 14.0234V20.1561C19.875 20.6423 20.045 21.0154 20.3873 21.2757C20.7297 21.5359 21.1115 21.666 21.5352 21.666C21.9268 21.666 22.2987 21.5359 22.6583 21.2757C23.0155 21.0154 23.1953 20.6423 23.1953 20.1561V13.7312C23.1953 11.4603 22.6731 9.73926 21.6337 8.57064C20.5918 7.40202 19.1927 6.81772 17.434 6.81772C16.131 6.81772 15.0325 7.06813 14.1384 7.57142C13.2418 8.07471 12.6014 8.66639 12.2097 9.3489C11.1999 7.66226 9.63823 6.81772 7.5224 6.81772C6.77361 6.81772 6.00758 6.97975 5.22676 7.30382C4.44595 7.62789 3.81046 8.05016 3.32276 8.56819C3.32276 8.40615 3.29074 8.22693 3.22424 8.03298C3.09369 7.67699 2.88186 7.42412 2.58875 7.27927C2.29564 7.13197 1.98528 7.06077 1.66015 7.06077C1.23649 7.06077 0.854706 7.19825 0.512331 7.47568C0.169956 7.75064 0 8.16555 0 8.71794V20.1561C0 20.6423 0.169956 21.0154 0.512331 21.2757C0.854706 21.5359 1.23649 21.666 1.66015 21.666C2.08381 21.666 2.46559 21.5359 2.80797 21.2757Z" fill="#011C25"/>
<path d="M83.3572 3.5304C83.7808 3.12531 83.9926 2.62939 83.9926 2.04508C83.9926 1.49269 83.7808 1.0164 83.3572 0.608859C82.9335 0.203771 82.4285 0 81.8423 0C81.2241 0 80.6945 0.203771 80.2561 0.608859C79.8152 1.01395 79.5959 1.49269 79.5959 2.04508C79.5959 2.62939 79.8152 3.12531 80.2561 3.5304C80.6945 3.93549 81.2241 4.13926 81.8423 4.13926C82.4285 4.13926 82.9335 3.93794 83.3572 3.5304Z" fill="#F34970"/>
<path d="M57.2483 46.9976C54.3221 46.9976 51.4008 46.4108 48.6273 45.2373C43.2011 42.9418 38.994 38.6773 36.7871 33.227C36.3536 32.1591 36.8708 30.9414 37.9447 30.5117C39.0162 30.0796 40.2379 30.5952 40.669 31.6656C42.4597 36.0798 45.8662 39.5366 50.2629 41.3975C54.6595 43.2585 59.5218 43.3002 63.9505 41.5154C65.0244 41.0833 66.2437 41.5989 66.6772 42.6693C67.1107 43.7372 66.5934 44.955 65.5195 45.387C62.847 46.4624 60.0464 47 57.2483 47V46.9976Z" fill="#F34970"/>
</svg>
