<svg width="14" height="14" viewBox="0 0 14 14" fill="none" xmlns="http://www.w3.org/2000/svg">
<path d="M5.90625 0H3.84375C3.65469 0 3.5 0.24375 3.5 0.541667V12.4583C3.5 12.7563 3.65469 13 3.84375 13H5.90625C6.09531 13 6.25 12.7563 6.25 12.4583V0.541667C6.25 0.24375 6.09531 0 5.90625 0ZM5.5625 3H4.1875V2.16667H5.5625V3Z" fill="#839FAC"/>
<path d="M2.625 0H0.375C0.16875 0 0 0.24375 0 0.541667V12.4583C0 12.7563 0.16875 13 0.375 13H2.625C2.83125 13 3 12.7563 3 12.4583V0.541667C3 0.24375 2.83125 0 2.625 0ZM2.25 3H0.75V2.16667H2.25V3Z" fill="#011C25"/>
<path d="M8.56398 0.444608L6.45208 1.22074C6.25849 1.29189 6.18094 1.57009 6.27976 1.83896L10.2323 12.594C10.3311 12.8629 10.5703 13.0247 10.7639 12.9535L12.8758 12.1774C13.0694 12.1062 13.147 11.828 13.0482 11.5592L9.09562 0.804118C8.99681 0.535242 8.75757 0.373463 8.56398 0.444608ZM9.16237 3.14499L7.76256 3.64548L7.52271 3.04685L8.93064 2.52943L9.16237 3.14499Z" fill="#011C25"/>
</svg>
