<svg width="13" height="13" viewBox="0 0 13 13" fill="none" xmlns="http://www.w3.org/2000/svg">
<path d="M7.0416 7.88119C6.16591 7.88119 5.52493 7.93085 5.11868 8.03015C4.71243 8.12946 4.36487 8.32355 4.07598 8.61244L2.23431 10.4541C2.135 10.5534 2.01078 10.6031 1.86164 10.6031C1.7125 10.6031 1.58395 10.5534 1.47598 10.4541C1.36764 10.3458 1.31348 10.217 1.31348 10.0679C1.31348 9.91876 1.36764 9.79021 1.47598 9.68223L3.3041 7.85411C3.58396 7.57425 3.77589 7.22451 3.87989 6.8049C3.98389 6.38529 4.03571 5.74197 4.03535 4.87494C4.03535 4.35133 4.15271 3.83675 4.38744 3.33119C4.62216 2.82564 4.95618 2.35619 5.38952 1.92286C6.21105 1.10133 7.11834 0.636401 8.11139 0.528068C9.10445 0.419735 9.92146 0.695082 10.5624 1.35411C11.2124 2.00411 11.4833 2.82564 11.3749 3.81869C11.2666 4.81175 10.8062 5.71453 9.99369 6.52703C9.56035 6.96036 9.09091 7.29439 8.58535 7.52911C8.0798 7.76383 7.56521 7.88119 7.0416 7.88119ZM5.5791 6.31036C6.00341 6.72564 6.57667 6.87911 7.29889 6.77078C8.02112 6.66244 8.6666 6.3239 9.23535 5.75515C9.81313 5.17737 10.1585 4.52954 10.2716 3.81165C10.3846 3.09376 10.2288 2.53187 9.8041 2.12598C9.37077 1.69265 8.80418 1.53015 8.10435 1.63848C7.40452 1.74682 6.76138 2.08987 6.17493 2.66765C5.60618 3.2364 5.26078 3.87972 5.13873 4.59761C5.01667 5.3155 5.16346 5.88642 5.5791 6.31036ZM9.74994 12.4583C9.1541 12.4583 8.64403 12.2461 8.21973 11.8218C7.79542 11.3975 7.58327 10.8874 7.58327 10.2916C7.58327 9.69578 7.79542 9.18571 8.21973 8.7614C8.64403 8.3371 9.1541 8.12494 9.74994 8.12494C10.3458 8.12494 10.8558 8.3371 11.2801 8.7614C11.7044 9.18571 11.9166 9.69578 11.9166 10.2916C11.9166 10.8874 11.7044 11.3975 11.2801 11.8218C10.8558 12.2461 10.3458 12.4583 9.74994 12.4583Z" fill="#011C25"/>
</svg>
