<svg width="11" height="12" viewBox="0 0 11 12" fill="none" xmlns="http://www.w3.org/2000/svg">
<path d="M5.72813 7.37607C4.85243 7.37607 4.21146 7.42572 3.80521 7.52502C3.39896 7.62433 3.05139 7.81843 2.7625 8.10732L0.920833 9.94898C0.821528 10.0483 0.697306 10.0979 0.548167 10.0979C0.399028 10.0979 0.270472 10.0483 0.1625 9.94898C0.0541666 9.84065 0 9.71191 0 9.56277C0 9.41363 0.0541666 9.28508 0.1625 9.17711L1.99063 7.34898C2.27049 7.06912 2.46242 6.71939 2.56642 6.29977C2.67042 5.88016 2.72224 5.23684 2.72187 4.36982C2.72187 3.8462 2.83924 3.33162 3.07396 2.82607C3.30868 2.32051 3.64271 1.85107 4.07604 1.41773C4.89757 0.596205 5.80486 0.131275 6.79792 0.0229412C7.79097 -0.0853921 8.60799 0.189955 9.24896 0.848983C9.89896 1.49898 10.1698 2.32051 10.0615 3.31357C9.95313 4.30662 9.49271 5.2094 8.68021 6.0219C8.24688 6.45523 7.77743 6.78926 7.27188 7.02398C6.76632 7.2587 6.25174 7.37607 5.72813 7.37607ZM4.26562 5.80523C4.68993 6.22051 5.26319 6.37398 5.98542 6.26565C6.70764 6.15732 7.35312 5.81877 7.92188 5.25002C8.49965 4.67225 8.84506 4.02441 8.95808 3.30652C9.07111 2.58864 8.91529 2.02675 8.49063 1.62086C8.05729 1.18752 7.49071 1.02502 6.79087 1.13336C6.09104 1.24169 5.4479 1.58475 4.86146 2.16252C4.29271 2.73127 3.94731 3.37459 3.82525 4.09248C3.70319 4.81037 3.84999 5.38129 4.26562 5.80523ZM8.43646 11.9531C7.84063 11.9531 7.33056 11.741 6.90625 11.3167C6.48194 10.8924 6.26979 10.3823 6.26979 9.78648C6.26979 9.19065 6.48194 8.68058 6.90625 8.25627C7.33056 7.83197 7.84063 7.61982 8.43646 7.61982C9.03229 7.61982 9.54236 7.83197 9.96667 8.25627C10.391 8.68058 10.6031 9.19065 10.6031 9.78648C10.6031 10.3823 10.391 10.8924 9.96667 11.3167C9.54236 11.741 9.03229 11.9531 8.43646 11.9531Z" fill="#F34970"/>
</svg>
