<svg width="12" height="16" viewBox="0 0 12 16" fill="none" xmlns="http://www.w3.org/2000/svg">
<path d="M7.99318 3.6533C8.72651 3.6533 9.32651 3.0533 9.32651 2.31997C9.32651 1.58663 8.72651 0.986633 7.99318 0.986633C7.25985 0.986633 6.65985 1.58663 6.65985 2.31997C6.65985 3.0533 7.25985 3.6533 7.99318 3.6533ZM5.59318 12.92L6.25985 9.98663L7.65985 11.32V15.32H8.99318V10.32L7.59318 8.98663L7.99318 6.98663C8.85985 7.98663 10.1932 8.6533 11.6598 8.6533V7.31997C10.3932 7.31997 9.32651 6.6533 8.79318 5.71997L8.12651 4.6533C7.85985 4.2533 7.45985 3.98663 6.99318 3.98663C6.79318 3.98663 6.65985 4.0533 6.45985 4.0533L2.99318 5.51997V8.6533H4.32651V6.38663L5.52651 5.91997L4.45985 11.32L1.19318 10.6533L0.926514 11.9866L5.59318 12.92Z" fill="#011C25"/>
</svg>
