<svg width="16" height="12" viewBox="0 0 16 12" fill="none" xmlns="http://www.w3.org/2000/svg">
<path d="M8.66675 9.36669C9.15564 9.13335 9.64742 8.95824 10.1421 8.84135C10.6363 8.72491 11.1445 8.66669 11.6667 8.66669C12.0667 8.66669 12.4585 8.70002 12.8421 8.76669C13.2252 8.83335 13.6112 8.93335 14.0001 9.06669V2.46669C13.6334 2.31113 13.253 2.19446 12.8587 2.11669C12.4641 2.03891 12.0667 2.00002 11.6667 2.00002C11.1445 2.00002 10.6279 2.06669 10.1167 2.20002C9.60564 2.33335 9.1223 2.53335 8.66675 2.80002V9.36669ZM8.00008 11.3334C7.46675 10.9111 6.88897 10.5834 6.26675 10.35C5.64453 10.1167 5.00008 10 4.33341 10C3.86675 10 3.40853 10.0611 2.95875 10.1834C2.50853 10.3056 2.07786 10.4778 1.66675 10.7C1.43341 10.8222 1.20853 10.8167 0.992081 10.6834C0.775193 10.55 0.666748 10.3556 0.666748 10.1V2.06669C0.666748 1.94446 0.697415 1.8278 0.758748 1.71669C0.819637 1.60558 0.911192 1.52224 1.03341 1.46669C1.55564 1.21113 2.09186 1.0138 2.64208 0.874687C3.19186 0.73602 3.75564 0.666687 4.33341 0.666687C4.97786 0.666687 5.60853 0.75002 6.22542 0.916687C6.84186 1.08335 7.43341 1.33335 8.00008 1.66669C8.56675 1.33335 9.15853 1.08335 9.77542 0.916687C10.3919 0.75002 11.0223 0.666687 11.6667 0.666687C12.2445 0.666687 12.8085 0.73602 13.3587 0.874687C13.9085 1.0138 14.4445 1.21113 14.9667 1.46669C15.089 1.52224 15.1807 1.60558 15.2421 1.71669C15.303 1.8278 15.3334 1.94446 15.3334 2.06669V10.1C15.3334 10.3556 15.2252 10.55 15.0087 10.6834C14.7919 10.8167 14.5667 10.8222 14.3334 10.7C13.9223 10.4778 13.4916 10.3056 13.0414 10.1834C12.5916 10.0611 12.1334 10 11.6667 10C11.0001 10 10.3556 10.1167 9.73342 10.35C9.11119 10.5834 8.53341 10.9111 8.00008 11.3334Z" fill="#011C25"/>
</svg>
