<svg width="13" height="13" viewBox="0 0 13 13" fill="none" xmlns="http://www.w3.org/2000/svg">
<path d="M3.92115 13C3.60544 13 3.3292 12.9079 3.09242 12.7238C2.85564 12.5396 2.69779 12.3012 2.61886 12.0087L1.85778 9.1H10.6524L9.89137 12.0087C9.81244 12.3012 9.65458 12.5396 9.41781 12.7238C9.18103 12.9079 8.90478 13 8.58908 13H3.92115ZM6.25511 3.9C6.25511 2.81667 6.64974 1.89583 7.43901 1.1375C8.22827 0.379167 9.18667 0 10.3142 0C10.3142 0.975 9.99284 1.82 9.35016 2.535C8.70747 3.25 7.90129 3.68333 6.93162 3.835V5.2H12.3437V7.15C12.3437 7.5075 12.2111 7.81365 11.9459 8.06845C11.6807 8.32325 11.3623 8.45043 10.9907 8.45H1.51953C1.14745 8.45 0.82881 8.3226 0.563617 8.0678C0.298425 7.813 0.166054 7.50707 0.166505 7.15V5.2H5.5786V3.835C4.60893 3.68333 3.80276 3.25 3.16007 2.535C2.51738 1.82 2.19604 0.975 2.19604 0C3.32356 0 4.28195 0.379167 5.07122 1.1375C5.86048 1.89583 6.25511 2.81667 6.25511 3.9Z" fill="#AABB5D"/>
<path d="M3.82419 12.8333C3.50264 12.8333 3.22128 12.7409 2.98011 12.5559C2.73895 12.3709 2.57817 12.1316 2.49778 11.8378L1.72261 8.91667H10.6802L9.905 11.8378C9.82461 12.1316 9.66383 12.3709 9.42267 12.5559C9.1815 12.7409 8.90014 12.8333 8.57859 12.8333H3.82419ZM5.76852 5H6.28519H6.87181L7.45843 5.00002L7.77978 5H12.4028V6.95833C12.4028 7.31736 12.2677 7.62482 11.9976 7.88071C11.7275 8.1366 11.4032 8.26432 11.0247 8.26389H1.37809C0.999114 8.26389 0.674574 8.13594 0.404469 7.88006C0.134365 7.62417 -0.000458192 7.31693 1.16985e-06 6.95833V5H3.17064H4.00867H4.35773H4.76289H5.1819H5.76852Z" fill="#011C25"/>
</svg>
