<svg width="13" height="13" viewBox="0 0 13 13" fill="none" xmlns="http://www.w3.org/2000/svg">
<path d="M3.92115 13C3.60544 13 3.3292 12.9079 3.09242 12.7238C2.85564 12.5396 2.69779 12.3012 2.61886 12.0087L1.85778 9.1H10.6524L9.89137 12.0087C9.81244 12.3012 9.65458 12.5396 9.41781 12.7238C9.18103 12.9079 8.90478 13 8.58908 13H3.92115ZM6.25511 3.9C6.25511 2.81667 6.64974 1.89583 7.43901 1.1375C8.22827 0.379167 9.18667 0 10.3142 0C10.3142 0.975 9.99284 1.82 9.35016 2.535C8.70747 3.25 7.90129 3.68333 6.93162 3.835V5.2H12.3437V7.15C12.3437 7.5075 12.2111 7.81365 11.9459 8.06845C11.6807 8.32325 11.3623 8.45043 10.9907 8.45H1.51953C1.14745 8.45 0.82881 8.3226 0.563617 8.0678C0.298425 7.813 0.166054 7.50707 0.166505 7.15V5.2H5.5786V3.835C4.60893 3.68333 3.80276 3.25 3.16007 2.535C2.51738 1.82 2.19604 0.975 2.19604 0C3.32356 0 4.28195 0.379167 5.07122 1.1375C5.86048 1.89583 6.25511 2.81667 6.25511 3.9Z" fill="#AABB5D"/>
<path d="M3.82419 13.0001C3.50264 13.0001 3.22128 12.9076 2.98011 12.7227C2.73895 12.5377 2.57817 12.2983 2.49778 12.0046L1.72261 9.08341H10.6802L9.905 12.0046C9.82461 12.2983 9.66383 12.5377 9.42267 12.7227C9.1815 12.9076 8.90014 13.0001 8.57859 13.0001H3.82419ZM5.76852 5.16675H6.28519H6.87181L7.45843 5.16677L7.77978 5.16675H12.4028V7.12508C12.4028 7.48411 12.2677 7.79157 11.9976 8.04746C11.7275 8.30335 11.4032 8.43107 11.0247 8.43064H1.37809C0.999114 8.43064 0.674574 8.30269 0.404469 8.0468C0.134365 7.79091 -0.000458192 7.48367 1.16985e-06 7.12508V5.16675H3.17064H4.00867H4.35773H4.76289H5.1819H5.76852Z" fill="#F34970"/>
</svg>
