<svg width="14" height="14" viewBox="0 0 14 14" fill="none" xmlns="http://www.w3.org/2000/svg">
<path d="M11.6663 8.55545C11.6663 11.3476 9.40284 13.2221 6.61073 13.2221C3.81862 13.2221 1.55518 11.3475 1.55518 8.55544C1.55518 5.76333 4.66629 3.88877 6.61073 5.83332C8.94406 3.88877 11.6663 5.76334 11.6663 8.55545Z" fill="#FEF4EB" stroke="#011C25" stroke-width="0.9"/>
<path d="M12.6603 5.10458V2.73782L7.26794 4.49284C7.06699 4.55969 6.85487 4.59312 6.63158 4.59312C6.40829 4.59312 6.19617 4.55969 5.99522 4.49284L0.334934 2.64757C0.212127 2.60745 0.125492 2.55731 0.0750297 2.49714C0.0245672 2.43696 -0.000440695 2.37011 5.87593e-06 2.29656C5.87593e-06 2.22302 0.0252372 2.15616 0.0756997 2.09599C0.126162 2.03582 0.212573 1.98568 0.334934 1.94556L5.99522 0.100293C6.0957 0.0668638 6.19908 0.0417253 6.30536 0.0248772C6.41164 0.00802909 6.52038 -0.000261162 6.63158 6.26796e-06C6.74322 6.26796e-06 6.85219 0.00843031 6.95847 0.0252784C7.06475 0.0421265 7.16791 0.0671313 7.26794 0.100293L13.6483 2.18625C13.76 2.21968 13.8466 2.26822 13.9082 2.33186C13.9699 2.39551 14.0004 2.46398 14 2.53725V5.10458C14 5.21824 13.9357 5.31358 13.8071 5.3906C13.6785 5.46762 13.5195 5.50599 13.3301 5.50573C13.1403 5.50573 12.9811 5.46722 12.8525 5.3902C12.7239 5.31318 12.6598 5.21797 12.6603 5.10458ZM5.99522 6.89971L2.64594 5.81661C2.42265 5.74307 2.24961 5.64279 2.1268 5.51576C2.00399 5.38873 1.94259 5.25167 1.94259 5.10458V3.58023L5.99522 4.89398C6.19617 4.96084 6.40829 4.99427 6.63158 4.99427C6.85487 4.99427 7.06699 4.96084 7.26794 4.89398L11.3206 3.58023V5.10458C11.3206 5.25167 11.2592 5.38873 11.1364 5.51576C11.0136 5.64279 10.8405 5.74307 10.6172 5.81661L7.26794 6.89971C7.16746 6.93314 7.06431 6.95827 6.95847 6.97512C6.85263 6.99197 6.74367 7.00026 6.63158 6.99999C6.51994 6.99999 6.41097 6.99157 6.30469 6.97472C6.19841 6.95787 6.09525 6.93287 5.99522 6.89971Z" fill="#011C25"/>
<path d="M3.99835 9.97538C4.00281 9.42363 4.45413 8.97904 5.00639 8.9835C5.55866 8.98796 6.00274 9.43979 5.99828 9.99155C5.5 10.5 5.54654 10.488 4.99427 10.4836C4.44201 10.4791 3.99389 10.5271 3.99835 9.97538Z" fill="#011C25"/>
<path d="M7.99786 10.0079C8.00232 9.4561 8.45364 9.01151 9.00591 9.01597C9.55817 9.02043 10.0023 9.47226 9.99779 10.024C9.5 10.5 9.54605 10.5205 8.99379 10.516C8.44152 10.5116 7.9934 10.5596 7.99786 10.0079Z" fill="#011C25"/>
<path d="M6.17308 8.83333C6.17308 8.68599 6.23386 8.54468 6.34205 8.4405C6.45025 8.33631 6.59699 8.27778 6.75 8.27778C6.90301 8.27778 7.04975 8.33631 7.15795 8.4405C7.26614 8.54468 7.32692 8.68599 7.32692 8.83333M10.2115 8.27778H10.5M10.2115 8.27778C10.2115 9.94444 9.92308 10.5 8.76923 10.5C7.61538 10.5 7.32692 9.94444 7.32692 8.27778C7.32692 8.27778 7.61538 8 8.76923 8C9.92308 8 10.2115 8.27778 10.2115 8.27778ZM3.28846 8.27778H3M3.28846 8.27778C3.28846 9.94444 3.57692 10.5 4.73077 10.5C5.88462 10.5 6.17308 9.94444 6.17308 8.27778C6.17308 8.27778 5.88462 8 4.73077 8C3.57692 8 3.28846 8.27778 3.28846 8.27778Z" stroke="#011C25" stroke-width="0.3" stroke-linecap="round" stroke-linejoin="round"/>
</svg>
