<svg width="12" height="13" viewBox="0 0 12 13" fill="none" xmlns="http://www.w3.org/2000/svg">
<path d="M7.33333 12.2041C7.14444 12.2041 6.98622 12.1401 6.85867 12.0121C6.73067 11.8845 6.66667 11.7263 6.66667 11.5374C6.66667 11.3485 6.73067 11.1903 6.85867 11.0628C6.98622 10.9348 7.14444 10.8708 7.33333 10.8708C7.85556 10.8708 8.31933 10.7681 8.72467 10.5628C9.13044 10.357 9.33333 10.1263 9.33333 9.87077C9.33333 9.71521 9.26111 9.57077 9.11667 9.43744C8.97222 9.3041 8.77222 9.18188 8.51667 9.07077L9.5 8.08743C9.85556 8.29855 10.1389 8.54855 10.35 8.83743C10.5611 9.12632 10.6667 9.47077 10.6667 9.87077C10.6667 10.6041 10.3167 11.1763 9.61667 11.5874C8.91667 11.9985 8.15556 12.2041 7.33333 12.2041ZM1.05 7.1041C0.727778 6.91521 0.472222 6.69566 0.283333 6.44544C0.0944444 6.19566 0 5.89299 0 5.53744C0 5.07077 0.172222 4.67899 0.516667 4.3621C0.861111 4.04566 1.47778 3.69299 2.36667 3.3041C3.06667 2.98188 3.51378 2.75677 3.708 2.62877C3.90267 2.50121 4 2.35966 4 2.2041C4 2.02632 3.89156 1.87077 3.67467 1.73744C3.45822 1.6041 3.12222 1.53743 2.66667 1.53743C2.38889 1.53743 2.15556 1.57077 1.96667 1.63743C1.77778 1.7041 1.60556 1.81521 1.45 1.97077C1.32778 2.09299 1.17778 2.16521 1 2.18743C0.822222 2.20966 0.661111 2.15966 0.516667 2.03743C0.372222 1.92632 0.288889 1.78188 0.266667 1.6041C0.244445 1.42632 0.294444 1.26521 0.416667 1.12077C0.627778 0.865213 0.930667 0.648546 1.32533 0.470768C1.71956 0.292991 2.16667 0.204102 2.66667 0.204102C3.46667 0.204102 4.11111 0.384546 4.6 0.745435C5.08889 1.10677 5.33333 1.59299 5.33333 2.2041C5.33333 2.63743 5.17222 3.02632 4.85 3.37077C4.52778 3.71521 3.87778 4.09855 2.9 4.52077C2.25556 4.79855 1.83333 5.0041 1.63333 5.13743C1.43333 5.27077 1.33333 5.4041 1.33333 5.53744C1.33333 5.63743 1.39711 5.73477 1.52467 5.82943C1.65267 5.92366 1.82778 6.01521 2.05 6.1041L1.05 7.1041ZM10.5667 5.13743L7.73333 2.3041L8.43333 1.6041C8.7 1.33743 9.01933 1.2041 9.39133 1.2041C9.76378 1.2041 10.0778 1.33743 10.3333 1.6041L11.2667 2.53744C11.5333 2.79299 11.6667 3.10677 11.6667 3.47877C11.6667 3.85121 11.5333 4.17077 11.2667 4.43744L10.5667 5.13743ZM0.666667 12.2041V9.37077L6.8 3.23744L9.63333 6.07077L3.5 12.2041H0.666667Z" fill="#011C25"/>
</svg>
