<svg width="14" height="14" viewBox="0 0 14 14" fill="none" xmlns="http://www.w3.org/2000/svg">
<path fill-rule="evenodd" clip-rule="evenodd" d="M10.8645 0.748361C11.1105 0.50488 11.6556 0.0121114 12.0034 0.0121114C12.1369 0.0119169 12.0034 -0.015063 12.4221 0.0121444L13.459 1.04212C13.7049 1.28568 13.9796 1.43228 13.9796 1.77666C13.4604 2.29081 13.7063 2.04726 13.4604 2.29081L12.4221 3.31911L10.3454 1.26251L10.8645 0.748361ZM9.82619 1.77666L5.6728 5.37572C5.6728 5.37572 5.6728 5.37572 5.15363 5.88987L4.9346 7.15541C4.9346 7.49987 4.68852 8.06491 4.93447 8.30848C5.18042 8.55204 5.89824 8.45418 6.24606 8.45418L7.23032 8.46062C7.23032 8.46062 7.50361 8.19005 7.7495 7.94647L11.9029 3.83326L10.3454 2.29081L9.82619 1.77666Z" fill="#F34970"/>
<path d="M2.96718 7.80493H2.31145C1.96363 7.80493 1.63006 7.94177 1.38412 8.18533C1.13817 8.4289 1 8.75924 1 9.1037C1 9.44815 1.13817 9.7785 1.38412 10.0221C1.63006 10.2656 1.96363 10.4025 2.31145 10.4025H11.4916C11.8394 10.4025 12.173 10.5393 12.419 10.7829C12.6649 11.0264 12.8031 11.3568 12.8031 11.7012C12.8031 12.0457 12.6649 12.376 12.419 12.6196C12.173 12.8632 11.8394 13 11.4916 13H8.86872" stroke="#011C25" stroke-linecap="round" stroke-linejoin="round"/>
</svg>
