<svg width="13" height="14" viewBox="0 0 13 14" fill="none" xmlns="http://www.w3.org/2000/svg">
<path d="M9.33317 10.3334C9.61095 10.3334 9.84695 10.236 10.0412 10.0414C10.2358 9.84715 10.3332 9.61115 10.3332 9.33337C10.3332 9.0556 10.2358 8.8196 10.0412 8.62537C9.84695 8.43071 9.61095 8.33337 9.33317 8.33337C9.05539 8.33337 8.81939 8.43071 8.62517 8.62537C8.4305 8.8196 8.33317 9.0556 8.33317 9.33337C8.33317 9.61115 8.4305 9.84715 8.62517 10.0414C8.81939 10.236 9.05539 10.3334 9.33317 10.3334ZM9.33317 12.3334C9.67762 12.3334 9.99428 12.2527 10.2832 12.0914C10.5721 11.9305 10.8054 11.7167 10.9832 11.45C10.7387 11.3056 10.4776 11.1945 10.1998 11.1167C9.92206 11.0389 9.63317 11 9.33317 11C9.03317 11 8.74428 11.0389 8.4665 11.1167C8.18873 11.1945 7.92762 11.3056 7.68317 11.45C7.86095 11.7167 8.09428 11.9305 8.38317 12.0914C8.67206 12.2527 8.98873 12.3334 9.33317 12.3334ZM9.33317 13.6667C8.41095 13.6667 7.62495 13.3418 6.97517 12.692C6.32495 12.0418 5.99984 11.2556 5.99984 10.3334C5.99984 9.41115 6.32495 8.62493 6.97517 7.97471C7.62495 7.32493 8.41095 7.00004 9.33317 7.00004C10.2554 7.00004 11.0416 7.32493 11.6918 7.97471C12.3416 8.62493 12.6665 9.41115 12.6665 10.3334C12.6665 11.2556 12.3416 12.0418 11.6918 12.692C11.0416 13.3418 10.2554 13.6667 9.33317 13.6667ZM5.99984 13.6667C4.45539 13.2778 3.1805 12.3916 2.17517 11.008C1.16939 9.62493 0.666504 8.08893 0.666504 6.40004V2.33337L5.99984 0.333374L11.3332 2.33337V6.11671C11.0443 5.97226 10.7194 5.86115 10.3585 5.78337C9.99717 5.7056 9.65539 5.66671 9.33317 5.66671C8.04428 5.66671 6.94428 6.12226 6.03317 7.03337C5.12206 7.94448 4.6665 9.04449 4.6665 10.3334C4.6665 11.0223 4.79717 11.6445 5.0585 12.2C5.31939 12.7556 5.64984 13.2389 6.04984 13.65C6.03873 13.65 6.0305 13.6529 6.02517 13.6587C6.01939 13.664 6.01095 13.6667 5.99984 13.6667Z" fill="#011C25"/>
</svg>
