<svg width="14" height="14" viewBox="0 0 14 14" fill="none" xmlns="http://www.w3.org/2000/svg">
<path d="M4.99967 8.49998C4.76634 8.49998 4.56923 8.41931 4.40834 8.25798C4.24701 8.09709 4.16634 7.89998 4.16634 7.66665C4.16634 7.43331 4.24701 7.2362 4.40834 7.07531C4.56923 6.91398 4.76634 6.83331 4.99967 6.83331C5.23301 6.83331 5.43012 6.91398 5.59101 7.07531C5.75234 7.2362 5.83301 7.43331 5.83301 7.66665C5.83301 7.89998 5.75234 8.09709 5.59101 8.25798C5.43012 8.41931 5.23301 8.49998 4.99967 8.49998ZM8.99967 8.49998C8.76634 8.49998 8.56923 8.41931 8.40834 8.25798C8.24701 8.09709 8.16634 7.89998 8.16634 7.66665C8.16634 7.43331 8.24701 7.2362 8.40834 7.07531C8.56923 6.91398 8.76634 6.83331 8.99967 6.83331C9.23301 6.83331 9.43012 6.91398 9.59101 7.07531C9.75234 7.2362 9.83301 7.43331 9.83301 7.66665C9.83301 7.89998 9.75234 8.09709 9.59101 8.25798C9.43012 8.41931 9.23301 8.49998 8.99967 8.49998ZM6.99967 12.3333C8.48856 12.3333 9.74967 11.8166 10.783 10.7833C11.8163 9.74998 12.333 8.48887 12.333 6.99998C12.333 6.73331 12.3163 6.47487 12.283 6.22465C12.2497 5.97487 12.1886 5.73331 12.0997 5.49998C11.8663 5.55553 11.633 5.59731 11.3997 5.62531C11.1663 5.65287 10.9219 5.66665 10.6663 5.66665C9.65523 5.66665 8.69967 5.44998 7.79967 5.01665C6.89967 4.58331 6.13301 3.97776 5.49967 3.19998C5.14412 4.06665 4.6359 4.81953 3.97501 5.45865C3.31367 6.09731 2.54412 6.57776 1.66634 6.89998V6.99998C1.66634 8.48887 2.18301 9.74998 3.21634 10.7833C4.24967 11.8166 5.51079 12.3333 6.99967 12.3333ZM6.99967 13.6666C6.07745 13.6666 5.21079 13.4915 4.39967 13.1413C3.58856 12.7915 2.88301 12.3166 2.28301 11.7166C1.68301 11.1166 1.20812 10.4111 0.858341 9.59998C0.508119 8.78887 0.333008 7.9222 0.333008 6.99998C0.333008 6.07776 0.508119 5.21109 0.858341 4.39998C1.20812 3.58887 1.68301 2.88331 2.28301 2.28331C2.88301 1.68331 3.58856 1.2082 4.39967 0.85798C5.21079 0.508202 6.07745 0.333313 6.99967 0.333313C7.9219 0.333313 8.78856 0.508202 9.59967 0.85798C10.4108 1.2082 11.1163 1.68331 11.7163 2.28331C12.3163 2.88331 12.7912 3.58887 13.141 4.39998C13.4912 5.21109 13.6663 6.07776 13.6663 6.99998C13.6663 7.9222 13.4912 8.78887 13.141 9.59998C12.7912 10.4111 12.3163 11.1166 11.7163 11.7166C11.1163 12.3166 10.4108 12.7915 9.59967 13.1413C8.78856 13.4915 7.9219 13.6666 6.99967 13.6666Z" fill="#011C25"/>
</svg>
